<svg xmlns="http://www.w3.org/2000/svg" xmlns:xlink="http://www.w3.org/1999/xlink" width="6912" zoomAndPan="magnify" viewBox="0 0 5184 2592.000001" height="3456" preserveAspectRatio="xMidYMid meet" version="1.0"><defs><g/><clipPath id="e6c22cba0e"><path d="M 7 200.800781 L 5177 200.800781 L 5177 2389.957031 L 7 2389.957031 Z M 7 200.800781 " clip-rule="nonzero"/></clipPath></defs><g clip-path="url(#e6c22cba0e)"><path fill="#ffffff" d="M 1101.726562 2261.570312 C 568 2261.570312 135.320312 1828.941406 135.320312 1295.269531 C 135.320312 761.574219 568 328.941406 1101.726562 328.941406 C 1390.273438 328.941406 1649.214844 455.472656 1826.273438 655.972656 L 1688.339844 655.972656 C 1533.875 514.179688 1327.953125 427.558594 1101.726562 427.558594 C 622.464844 427.558594 233.921875 816.035156 233.921875 1295.269531 C 233.921875 1774.480469 622.464844 2162.980469 1101.726562 2162.980469 C 1332.195312 2162.980469 1541.628906 2073.09375 1697.011719 1926.527344 L 1833.234375 1926.527344 C 1656.042969 2131.664062 1394.097656 2261.570312 1101.726562 2261.570312 Z M 5176.882812 1793.433594 L 1667.882812 1793.433594 C 1529.660156 1950.332031 1327.265625 2049.367188 1101.726562 2049.367188 C 685.210938 2049.367188 347.546875 1711.742188 347.546875 1295.269531 C 347.546875 878.773438 685.210938 541.144531 1101.726562 541.144531 C 1248.730469 541.144531 1385.871094 583.242188 1501.84375 655.972656 C 1563.800781 694.855469 1619.742188 742.460938 1667.882812 797.105469 L 2076.648438 797.105469 C 2051.363281 747.757812 2022.46875 700.625 1990.308594 655.972656 C 1791.554688 380.265625 1467.597656 200.777344 1101.726562 200.777344 C 497.1875 200.777344 7.117188 690.792969 7.117188 1295.269531 C 7.117188 1899.746094 497.1875 2389.761719 1101.726562 2389.761719 C 1471.132812 2389.761719 1797.75 2206.765625 1995.976562 1926.527344 L 5176.882812 1926.527344 L 5176.882812 1793.433594 " fill-opacity="1" fill-rule="nonzero"/></g><g fill="#ffffff" fill-opacity="1"><g transform="translate(1265.238807, 1152.802003)"><g><path d="M 199.53125 -287.609375 C 220.84375 -287.609375 239.160156 -285.460938 254.484375 -281.171875 C 269.816406 -276.890625 282.546875 -272.800781 292.671875 -268.90625 C 298.910156 -266.570312 304.882812 -264.039062 310.59375 -261.3125 C 316.3125 -258.582031 320.601562 -257.21875 323.46875 -257.21875 C 326.582031 -257.21875 329.179688 -258.773438 331.265625 -261.890625 L 336.71875 -259.9375 L 298.140625 -197.984375 L 292.296875 -201.09375 C 292.546875 -202.394531 292.671875 -203.5625 292.671875 -204.59375 C 292.671875 -205.632812 292.671875 -206.546875 292.671875 -207.328125 C 292.671875 -209.671875 289.941406 -212.789062 284.484375 -216.6875 C 279.035156 -220.582031 271.828125 -224.347656 262.859375 -227.984375 C 253.898438 -231.617188 243.640625 -234.800781 232.078125 -237.53125 C 220.515625 -240.257812 208.628906 -241.625 196.421875 -241.625 C 180.046875 -241.625 164.78125 -239.675781 150.625 -235.78125 C 136.46875 -231.882812 124.0625 -225.84375 113.40625 -217.65625 C 102.757812 -209.46875 94.378906 -199.140625 88.265625 -186.671875 C 82.160156 -174.203125 79.109375 -159.265625 79.109375 -141.859375 C 79.109375 -124.710938 82.160156 -109.898438 88.265625 -97.421875 C 94.378906 -84.953125 102.828125 -74.625 113.609375 -66.4375 C 124.390625 -58.257812 137.25 -52.15625 152.1875 -48.125 C 167.125 -44.101562 183.554688 -42.09375 201.484375 -42.09375 C 214.734375 -42.09375 227.398438 -43.710938 239.484375 -46.953125 C 251.566406 -50.203125 262.21875 -54.296875 271.4375 -59.234375 C 280.664062 -64.171875 288.070312 -69.367188 293.65625 -74.828125 C 299.238281 -80.285156 302.03125 -85.351562 302.03125 -90.03125 C 302.03125 -91.320312 301.898438 -92.488281 301.640625 -93.53125 C 301.378906 -94.570312 300.988281 -95.742188 300.46875 -97.046875 L 304.375 -99.765625 L 344.515625 -42.484375 L 341.390625 -40.921875 C 340.609375 -41.703125 339.050781 -42.09375 336.71875 -42.09375 C 334.894531 -42.09375 332.554688 -41.117188 329.703125 -39.171875 C 326.847656 -37.222656 322.820312 -34.425781 317.625 -30.78125 C 300.21875 -18.3125 281.570312 -9.414062 261.6875 -4.09375 C 241.8125 1.226562 220.1875 3.890625 196.8125 3.890625 C 174.726562 3.890625 153.289062 1.097656 132.5 -4.484375 C 111.71875 -10.066406 93.269531 -18.832031 77.15625 -30.78125 C 61.050781 -42.738281 48.125 -57.8125 38.375 -76 C 28.632812 -94.1875 23.765625 -116.007812 23.765625 -141.46875 C 23.765625 -164.851562 28.503906 -185.570312 37.984375 -203.625 C 47.472656 -221.6875 60.335938 -236.953125 76.578125 -249.421875 C 92.816406 -261.890625 111.523438 -271.367188 132.703125 -277.859375 C 153.878906 -284.359375 176.15625 -287.609375 199.53125 -287.609375 Z M 199.53125 -287.609375 "/></g></g></g><g fill="#ffffff" fill-opacity="1"><g transform="translate(1633.132952, 1152.802003)"><g><path d="M 162.125 3.890625 C 139.78125 3.890625 119.644531 0.644531 101.71875 -5.84375 C 83.789062 -12.34375 68.394531 -21.175781 55.53125 -32.34375 C 42.675781 -43.519531 32.804688 -56.507812 25.921875 -71.3125 C 19.035156 -86.125 15.59375 -101.710938 15.59375 -118.078125 C 15.59375 -136.523438 19.421875 -153.347656 27.078125 -168.546875 C 34.742188 -183.753906 45.132812 -196.75 58.25 -207.53125 C 71.375 -218.3125 86.769531 -226.6875 104.4375 -232.65625 C 122.113281 -238.632812 141.082031 -241.625 161.34375 -241.625 C 183.6875 -241.625 203.953125 -238.375 222.140625 -231.875 C 240.328125 -225.382812 255.847656 -216.550781 268.703125 -205.375 C 281.566406 -194.207031 291.441406 -181.15625 298.328125 -166.21875 C 305.210938 -151.28125 308.65625 -135.492188 308.65625 -118.859375 C 308.65625 -101.710938 305.082031 -85.734375 297.9375 -70.921875 C 290.789062 -56.117188 280.785156 -43.128906 267.921875 -31.953125 C 255.066406 -20.785156 239.675781 -12.019531 221.75 -5.65625 C 203.820312 0.707031 183.945312 3.890625 162.125 3.890625 Z M 60.796875 -118.859375 C 60.796875 -106.390625 63.265625 -94.957031 68.203125 -84.5625 C 73.140625 -74.175781 80.085938 -65.28125 89.046875 -57.875 C 98.015625 -50.46875 108.664062 -44.6875 121 -40.53125 C 133.34375 -36.375 147.050781 -34.296875 162.125 -34.296875 C 177.195312 -34.296875 190.898438 -36.375 203.234375 -40.53125 C 215.578125 -44.6875 226.226562 -50.46875 235.1875 -57.875 C 244.15625 -65.28125 251.109375 -74.175781 256.046875 -84.5625 C 260.984375 -94.957031 263.453125 -106.390625 263.453125 -118.859375 C 263.453125 -131.335938 261.046875 -142.769531 256.234375 -153.15625 C 251.429688 -163.550781 244.546875 -172.453125 235.578125 -179.859375 C 226.617188 -187.265625 215.90625 -193.046875 203.4375 -197.203125 C 190.96875 -201.359375 177.066406 -203.4375 161.734375 -203.4375 C 147.703125 -203.4375 134.582031 -201.550781 122.375 -197.78125 C 110.164062 -194.007812 99.515625 -188.488281 90.421875 -181.21875 C 81.328125 -173.945312 74.113281 -165.046875 68.78125 -154.515625 C 63.457031 -143.992188 60.796875 -132.109375 60.796875 -118.859375 Z M 60.796875 -118.859375 "/></g></g></g><g fill="#ffffff" fill-opacity="1"><g transform="translate(1957.768317, 1152.802003)"><g><path d="M 158.21875 -38.1875 C 172.25 -38.1875 184.265625 -39.550781 194.265625 -42.28125 C 204.273438 -45.007812 212.394531 -49.554688 218.625 -55.921875 C 224.863281 -62.285156 229.476562 -70.597656 232.46875 -80.859375 C 235.457031 -91.128906 236.953125 -103.796875 236.953125 -118.859375 C 236.953125 -132.109375 235.71875 -143.734375 233.25 -153.734375 C 230.78125 -163.742188 226.492188 -172.125 220.390625 -178.875 C 214.285156 -185.632812 206.226562 -190.765625 196.21875 -194.265625 C 186.21875 -197.773438 173.679688 -199.53125 158.609375 -199.53125 L 88.078125 -199.53125 L 88.078125 -38.1875 Z M 162.90625 -237.734375 C 181.613281 -237.734375 198.5 -235.003906 213.5625 -229.546875 C 228.632812 -224.085938 241.429688 -216.226562 251.953125 -205.96875 C 262.472656 -195.707031 270.523438 -183.234375 276.109375 -168.546875 C 281.703125 -153.867188 284.5 -137.304688 284.5 -118.859375 C 284.5 -80.410156 273.972656 -50.988281 252.921875 -30.59375 C 231.878906 -10.195312 202.132812 0 163.6875 0 L 32.734375 0 L 32.734375 -5.453125 C 35.847656 -5.453125 37.925781 -6.101562 38.96875 -7.40625 C 40.007812 -8.707031 40.53125 -11.046875 40.53125 -14.421875 L 40.53125 -222.921875 C 40.53125 -226.296875 40.070312 -228.695312 39.15625 -230.125 C 38.25 -231.550781 36.109375 -232.265625 32.734375 -232.265625 L 32.734375 -237.734375 Z M 162.90625 -237.734375 "/></g></g></g><g fill="#ffffff" fill-opacity="1"><g transform="translate(2260.969234, 1152.802003)"><g><path d="M 259.15625 -192.515625 L 253.703125 -192.515625 C 253.703125 -197.191406 249.9375 -199.53125 242.40625 -199.53125 L 85.734375 -199.53125 L 85.734375 -139.515625 L 187.0625 -139.515625 C 190.4375 -139.515625 193.160156 -139.90625 195.234375 -140.6875 C 197.316406 -141.46875 198.359375 -142.894531 198.359375 -144.96875 L 203.828125 -144.96875 L 203.828125 -95.875 L 198.359375 -95.875 C 198.359375 -97.164062 197.445312 -98.394531 195.625 -99.5625 C 193.8125 -100.738281 190.957031 -101.328125 187.0625 -101.328125 L 85.734375 -101.328125 L 85.734375 -38.1875 L 245.140625 -38.1875 C 247.992188 -38.1875 250.585938 -38.578125 252.921875 -39.359375 C 255.265625 -40.140625 256.4375 -41.570312 256.4375 -43.65625 L 261.890625 -43.65625 L 261.890625 4.671875 L 256.4375 4.671875 C 256.4375 2.597656 255.265625 1.300781 252.921875 0.78125 C 250.585938 0.257812 247.734375 0 244.359375 0 L 31.171875 0 L 31.171875 -5.453125 C 34.296875 -5.453125 36.242188 -6.164062 37.015625 -7.59375 C 37.796875 -9.03125 38.1875 -11.566406 38.1875 -15.203125 L 38.1875 -222.53125 C 38.1875 -226.164062 37.796875 -228.695312 37.015625 -230.125 C 36.242188 -231.550781 34.296875 -232.265625 31.171875 -232.265625 L 31.171875 -237.734375 L 242.015625 -237.734375 C 249.804688 -237.734375 253.703125 -239.289062 253.703125 -242.40625 L 259.15625 -242.40625 Z M 259.15625 -192.515625 "/></g></g></g><g fill="#ffffff" fill-opacity="1"><g transform="translate(2542.345925, 1152.802003)"><g><path d="M 112.625 -137.953125 L 112.625 -99.765625 L 17.140625 -99.765625 L 17.140625 -137.953125 Z M 112.625 -137.953125 "/></g></g></g><g fill="#ffffff" fill-opacity="1"><g transform="translate(2672.122197, 1152.802003)"><g><path d="M 199.53125 -287.609375 C 220.84375 -287.609375 239.160156 -285.460938 254.484375 -281.171875 C 269.816406 -276.890625 282.546875 -272.800781 292.671875 -268.90625 C 298.910156 -266.570312 304.882812 -264.039062 310.59375 -261.3125 C 316.3125 -258.582031 320.601562 -257.21875 323.46875 -257.21875 C 326.582031 -257.21875 329.179688 -258.773438 331.265625 -261.890625 L 336.71875 -259.9375 L 298.140625 -197.984375 L 292.296875 -201.09375 C 292.546875 -202.394531 292.671875 -203.5625 292.671875 -204.59375 C 292.671875 -205.632812 292.671875 -206.546875 292.671875 -207.328125 C 292.671875 -209.671875 289.941406 -212.789062 284.484375 -216.6875 C 279.035156 -220.582031 271.828125 -224.347656 262.859375 -227.984375 C 253.898438 -231.617188 243.640625 -234.800781 232.078125 -237.53125 C 220.515625 -240.257812 208.628906 -241.625 196.421875 -241.625 C 180.046875 -241.625 164.78125 -239.675781 150.625 -235.78125 C 136.46875 -231.882812 124.0625 -225.84375 113.40625 -217.65625 C 102.757812 -209.46875 94.378906 -199.140625 88.265625 -186.671875 C 82.160156 -174.203125 79.109375 -159.265625 79.109375 -141.859375 C 79.109375 -124.710938 82.160156 -109.898438 88.265625 -97.421875 C 94.378906 -84.953125 102.828125 -74.625 113.609375 -66.4375 C 124.390625 -58.257812 137.25 -52.15625 152.1875 -48.125 C 167.125 -44.101562 183.554688 -42.09375 201.484375 -42.09375 C 214.734375 -42.09375 227.398438 -43.710938 239.484375 -46.953125 C 251.566406 -50.203125 262.21875 -54.296875 271.4375 -59.234375 C 280.664062 -64.171875 288.070312 -69.367188 293.65625 -74.828125 C 299.238281 -80.285156 302.03125 -85.351562 302.03125 -90.03125 C 302.03125 -91.320312 301.898438 -92.488281 301.640625 -93.53125 C 301.378906 -94.570312 300.988281 -95.742188 300.46875 -97.046875 L 304.375 -99.765625 L 344.515625 -42.484375 L 341.390625 -40.921875 C 340.609375 -41.703125 339.050781 -42.09375 336.71875 -42.09375 C 334.894531 -42.09375 332.554688 -41.117188 329.703125 -39.171875 C 326.847656 -37.222656 322.820312 -34.425781 317.625 -30.78125 C 300.21875 -18.3125 281.570312 -9.414062 261.6875 -4.09375 C 241.8125 1.226562 220.1875 3.890625 196.8125 3.890625 C 174.726562 3.890625 153.289062 1.097656 132.5 -4.484375 C 111.71875 -10.066406 93.269531 -18.832031 77.15625 -30.78125 C 61.050781 -42.738281 48.125 -57.8125 38.375 -76 C 28.632812 -94.1875 23.765625 -116.007812 23.765625 -141.46875 C 23.765625 -164.851562 28.503906 -185.570312 37.984375 -203.625 C 47.472656 -221.6875 60.335938 -236.953125 76.578125 -249.421875 C 92.816406 -261.890625 111.523438 -271.367188 132.703125 -277.859375 C 153.878906 -284.359375 176.15625 -287.609375 199.53125 -287.609375 Z M 199.53125 -287.609375 "/></g></g></g><g fill="#ffffff" fill-opacity="1"><g transform="translate(3040.016378, 1152.802003)"><g><path d="M 98.59375 -102.109375 L 176.546875 -102.109375 L 137.1875 -187.84375 Z M 173.8125 -237.734375 L 173.8125 -232.265625 C 172.507812 -232.265625 171.40625 -231.941406 170.5 -231.296875 C 169.59375 -230.648438 169.140625 -229.675781 169.140625 -228.375 C 169.140625 -227.332031 169.398438 -226.289062 169.921875 -225.25 C 170.441406 -224.21875 171.609375 -221.882812 173.421875 -218.25 L 261.5 -27.28125 C 265.394531 -18.707031 268.25 -12.925781 270.0625 -9.9375 C 271.882812 -6.945312 273.835938 -5.453125 275.921875 -5.453125 L 275.921875 0 L 212.390625 0 L 212.390625 -5.453125 C 215.773438 -5.453125 217.46875 -6.753906 217.46875 -9.359375 C 217.46875 -10.648438 217.207031 -11.945312 216.6875 -13.25 C 216.164062 -14.550781 215.644531 -15.847656 215.125 -17.140625 C 214.601562 -18.441406 212.585938 -22.859375 209.078125 -30.390625 C 205.578125 -37.929688 200.445312 -49.101562 193.6875 -63.90625 L 81.453125 -63.90625 L 61.96875 -18.703125 C 60.144531 -14.546875 59.234375 -11.816406 59.234375 -10.515625 C 59.234375 -7.140625 61.441406 -5.453125 65.859375 -5.453125 L 65.859375 0 L 5.453125 0 L 5.453125 -5.453125 C 9.085938 -5.453125 11.617188 -7.007812 13.046875 -10.125 C 14.484375 -13.25 16.628906 -18.054688 19.484375 -24.546875 L 105.21875 -215.515625 C 106.78125 -219.148438 107.953125 -221.8125 108.734375 -223.5 C 109.515625 -225.1875 109.90625 -226.679688 109.90625 -227.984375 C 109.90625 -229.285156 109.445312 -230.320312 108.53125 -231.09375 C 107.625 -231.875 106.648438 -232.265625 105.609375 -232.265625 L 105.609375 -237.734375 Z M 173.8125 -237.734375 "/></g></g></g><g fill="#ffffff" fill-opacity="1"><g transform="translate(3321.392997, 1152.802003)"><g><path d="M 12.46875 -242.40625 L 17.921875 -242.40625 C 17.921875 -240.320312 19.023438 -239.019531 21.234375 -238.5 C 23.441406 -237.988281 26.238281 -237.734375 29.625 -237.734375 L 230.328125 -237.734375 C 233.441406 -237.734375 236.101562 -237.988281 238.3125 -238.5 C 240.519531 -239.019531 241.625 -240.320312 241.625 -242.40625 L 247.078125 -242.40625 L 247.078125 -194.859375 L 241.625 -194.859375 C 241.625 -196.941406 240.648438 -198.238281 238.703125 -198.75 C 236.753906 -199.269531 233.960938 -199.53125 230.328125 -199.53125 L 153.546875 -199.53125 L 153.546875 -14.03125 C 153.546875 -11.175781 154.066406 -9.03125 155.109375 -7.59375 C 156.148438 -6.164062 158.359375 -5.453125 161.734375 -5.453125 L 161.734375 0 L 98.203125 0 L 98.203125 -5.453125 C 101.585938 -5.453125 103.734375 -6.164062 104.640625 -7.59375 C 105.546875 -9.03125 106 -11.175781 106 -14.03125 L 106 -199.53125 L 28.453125 -199.53125 C 25.328125 -199.53125 22.789062 -199.269531 20.84375 -198.75 C 18.894531 -198.238281 17.921875 -196.941406 17.921875 -194.859375 L 12.46875 -194.859375 Z M 12.46875 -242.40625 "/></g></g></g><g fill="#ffffff" fill-opacity="1"><g transform="translate(3581.335134, 1152.802003)"><g><path d="M 98.59375 -102.109375 L 176.546875 -102.109375 L 137.1875 -187.84375 Z M 173.8125 -237.734375 L 173.8125 -232.265625 C 172.507812 -232.265625 171.40625 -231.941406 170.5 -231.296875 C 169.59375 -230.648438 169.140625 -229.675781 169.140625 -228.375 C 169.140625 -227.332031 169.398438 -226.289062 169.921875 -225.25 C 170.441406 -224.21875 171.609375 -221.882812 173.421875 -218.25 L 261.5 -27.28125 C 265.394531 -18.707031 268.25 -12.925781 270.0625 -9.9375 C 271.882812 -6.945312 273.835938 -5.453125 275.921875 -5.453125 L 275.921875 0 L 212.390625 0 L 212.390625 -5.453125 C 215.773438 -5.453125 217.46875 -6.753906 217.46875 -9.359375 C 217.46875 -10.648438 217.207031 -11.945312 216.6875 -13.25 C 216.164062 -14.550781 215.644531 -15.847656 215.125 -17.140625 C 214.601562 -18.441406 212.585938 -22.859375 209.078125 -30.390625 C 205.578125 -37.929688 200.445312 -49.101562 193.6875 -63.90625 L 81.453125 -63.90625 L 61.96875 -18.703125 C 60.144531 -14.546875 59.234375 -11.816406 59.234375 -10.515625 C 59.234375 -7.140625 61.441406 -5.453125 65.859375 -5.453125 L 65.859375 0 L 5.453125 0 L 5.453125 -5.453125 C 9.085938 -5.453125 11.617188 -7.007812 13.046875 -10.125 C 14.484375 -13.25 16.628906 -18.054688 19.484375 -24.546875 L 105.21875 -215.515625 C 106.78125 -219.148438 107.953125 -221.8125 108.734375 -223.5 C 109.515625 -225.1875 109.90625 -226.679688 109.90625 -227.984375 C 109.90625 -229.285156 109.445312 -230.320312 108.53125 -231.09375 C 107.625 -231.875 106.648438 -232.265625 105.609375 -232.265625 L 105.609375 -237.734375 Z M 173.8125 -237.734375 "/></g></g></g><g fill="#ffffff" fill-opacity="1"><g transform="translate(3862.711753, 1152.802003)"><g><path d="M 93.53125 -237.734375 L 93.53125 -232.265625 C 89.894531 -232.265625 87.554688 -231.613281 86.515625 -230.3125 C 85.472656 -229.019531 84.953125 -226.554688 84.953125 -222.921875 L 84.953125 -38.1875 L 235.390625 -38.1875 C 242.660156 -38.1875 246.296875 -40.914062 246.296875 -46.375 L 251.765625 -46.375 L 251.765625 5.453125 L 246.296875 5.453125 C 246.296875 1.816406 242.660156 0 235.390625 0 L 28.84375 0 L 28.84375 -5.453125 C 32.476562 -5.453125 34.8125 -6.164062 35.84375 -7.59375 C 36.882812 -9.03125 37.40625 -11.566406 37.40625 -15.203125 L 37.40625 -222.921875 C 37.40625 -226.296875 36.882812 -228.695312 35.84375 -230.125 C 34.8125 -231.550781 32.476562 -232.265625 28.84375 -232.265625 L 28.84375 -237.734375 Z M 93.53125 -237.734375 "/></g></g></g><g fill="#ffffff" fill-opacity="1"><g transform="translate(4122.654033, 1152.802003)"><g><path d="M 70.15625 -232.265625 C 68.332031 -232.265625 66.960938 -231.875 66.046875 -231.09375 C 65.140625 -230.320312 64.6875 -229.546875 64.6875 -228.765625 C 64.6875 -227.722656 65.207031 -226.488281 66.25 -225.0625 C 67.289062 -223.632812 69.238281 -221.101562 72.09375 -217.46875 L 130.953125 -139.515625 L 192.125 -221.359375 C 194.207031 -224.210938 195.25 -226.421875 195.25 -227.984375 C 195.25 -230.835938 193.300781 -232.265625 189.40625 -232.265625 L 189.40625 -237.734375 L 254.484375 -237.734375 L 254.484375 -232.265625 C 252.148438 -232.265625 250.203125 -231.222656 248.640625 -229.140625 C 247.078125 -227.066406 245 -224.34375 242.40625 -220.96875 L 153.546875 -99.765625 L 153.546875 -15.203125 C 153.546875 -11.566406 153.9375 -9.03125 154.71875 -7.59375 C 155.5 -6.164062 157.1875 -5.453125 159.78125 -5.453125 L 159.78125 0 L 99.765625 0 L 99.765625 -5.453125 C 102.628906 -5.453125 104.382812 -6.296875 105.03125 -7.984375 C 105.675781 -9.671875 106 -12.078125 106 -15.203125 L 106 -99.765625 L 15.203125 -219.40625 C 12.859375 -222.53125 10.582031 -225.453125 8.375 -228.171875 C 6.164062 -230.898438 4.023438 -232.265625 1.953125 -232.265625 L 1.953125 -237.734375 L 70.15625 -237.734375 Z M 70.15625 -232.265625 "/></g></g></g><g fill="#ffffff" fill-opacity="1"><g transform="translate(4382.596313, 1152.802003)"><g><path d="M 141.078125 -241.625 C 162.117188 -241.625 180.175781 -239.675781 195.25 -235.78125 C 210.320312 -231.882812 223.570312 -227.335938 235 -222.140625 C 237.59375 -220.835938 240.253906 -219.472656 242.984375 -218.046875 C 245.710938 -216.617188 247.597656 -215.90625 248.640625 -215.90625 C 249.160156 -215.90625 249.8125 -216.097656 250.59375 -216.484375 C 251.375 -216.878906 252.019531 -217.335938 252.53125 -217.859375 L 258 -215.90625 L 232.265625 -167.1875 L 226.8125 -170.703125 L 226.8125 -175.375 C 226.8125 -177.96875 224.472656 -180.890625 219.796875 -184.140625 C 215.117188 -187.390625 208.882812 -190.441406 201.09375 -193.296875 C 193.300781 -196.160156 184.335938 -198.566406 174.203125 -200.515625 C 164.066406 -202.460938 153.546875 -203.4375 142.640625 -203.4375 C 119.253906 -203.4375 101.328125 -200.640625 88.859375 -195.046875 C 76.390625 -189.460938 70.15625 -181.601562 70.15625 -171.46875 C 70.15625 -164.457031 72.6875 -159.195312 77.75 -155.6875 C 82.8125 -152.1875 89.5 -149.65625 97.8125 -148.09375 C 106.132812 -146.53125 115.617188 -145.679688 126.265625 -145.546875 C 136.921875 -145.421875 147.960938 -145.097656 159.390625 -144.578125 C 172.117188 -144.066406 184.585938 -142.960938 196.796875 -141.265625 C 209.015625 -139.578125 219.863281 -136.265625 229.34375 -131.328125 C 238.832031 -126.398438 246.5 -119.453125 252.34375 -110.484375 C 258.1875 -101.523438 261.109375 -89.507812 261.109375 -74.4375 C 261.109375 -49.488281 250.257812 -30.195312 228.5625 -16.5625 C 206.875 -2.925781 175.894531 3.890625 135.625 3.890625 C 112.5 3.890625 93.789062 2.140625 79.5 -1.359375 C 65.207031 -4.867188 53.644531 -8.832031 44.8125 -13.25 C 40.65625 -15.332031 37.34375 -17.019531 34.875 -18.3125 C 32.40625 -19.613281 30.132812 -20.265625 28.0625 -20.265625 C 26.238281 -20.265625 24.421875 -19.742188 22.609375 -18.703125 L 17.53125 -21.046875 L 46.375 -73.265625 L 51.4375 -70.15625 L 51.046875 -65.46875 C 51.046875 -61.832031 53.773438 -58.195312 59.234375 -54.5625 C 64.691406 -50.925781 71.835938 -47.613281 80.671875 -44.625 C 89.503906 -41.632812 99.632812 -39.164062 111.0625 -37.21875 C 122.5 -35.269531 134.191406 -34.296875 146.140625 -34.296875 C 169.003906 -34.296875 186.347656 -37.738281 198.171875 -44.625 C 209.992188 -51.507812 215.90625 -61.1875 215.90625 -73.65625 C 215.90625 -80.664062 212.976562 -85.925781 207.125 -89.4375 C 201.28125 -92.945312 193.8125 -95.476562 184.71875 -97.03125 C 175.632812 -98.59375 165.695312 -99.4375 154.90625 -99.5625 C 144.125 -99.695312 133.671875 -100.023438 123.546875 -100.546875 C 108.472656 -101.328125 94.828125 -102.753906 82.609375 -104.828125 C 70.398438 -106.910156 60.007812 -110.160156 51.4375 -114.578125 C 42.863281 -118.992188 36.300781 -124.90625 31.75 -132.3125 C 27.207031 -139.71875 24.9375 -149.132812 24.9375 -160.5625 C 24.9375 -171.476562 27.273438 -181.867188 31.953125 -191.734375 C 36.628906 -201.609375 43.707031 -210.25 53.1875 -217.65625 C 62.675781 -225.0625 74.691406 -230.90625 89.234375 -235.1875 C 103.785156 -239.476562 121.066406 -241.625 141.078125 -241.625 Z M 141.078125 -241.625 "/></g></g></g><g fill="#ffffff" fill-opacity="1"><g transform="translate(4663.973076, 1152.802003)"><g><path d="M 12.46875 -242.40625 L 17.921875 -242.40625 C 17.921875 -240.320312 19.023438 -239.019531 21.234375 -238.5 C 23.441406 -237.988281 26.238281 -237.734375 29.625 -237.734375 L 230.328125 -237.734375 C 233.441406 -237.734375 236.101562 -237.988281 238.3125 -238.5 C 240.519531 -239.019531 241.625 -240.320312 241.625 -242.40625 L 247.078125 -242.40625 L 247.078125 -194.859375 L 241.625 -194.859375 C 241.625 -196.941406 240.648438 -198.238281 238.703125 -198.75 C 236.753906 -199.269531 233.960938 -199.53125 230.328125 -199.53125 L 153.546875 -199.53125 L 153.546875 -14.03125 C 153.546875 -11.175781 154.066406 -9.03125 155.109375 -7.59375 C 156.148438 -6.164062 158.359375 -5.453125 161.734375 -5.453125 L 161.734375 0 L 98.203125 0 L 98.203125 -5.453125 C 101.585938 -5.453125 103.734375 -6.164062 104.640625 -7.59375 C 105.546875 -9.03125 106 -11.175781 106 -14.03125 L 106 -199.53125 L 28.453125 -199.53125 C 25.328125 -199.53125 22.789062 -199.269531 20.84375 -198.75 C 18.894531 -198.238281 17.921875 -196.941406 17.921875 -194.859375 L 12.46875 -194.859375 Z M 12.46875 -242.40625 "/></g></g></g><g fill="#ffffff" fill-opacity="1"><g transform="translate(2466.731687, 1697.92655)"><g><path d="M 199.53125 -287.609375 C 220.84375 -287.609375 239.160156 -285.460938 254.484375 -281.171875 C 269.816406 -276.890625 282.546875 -272.800781 292.671875 -268.90625 C 298.910156 -266.570312 304.882812 -264.039062 310.59375 -261.3125 C 316.3125 -258.582031 320.601562 -257.21875 323.46875 -257.21875 C 326.582031 -257.21875 329.179688 -258.773438 331.265625 -261.890625 L 336.71875 -259.9375 L 298.140625 -197.984375 L 292.296875 -201.09375 C 292.546875 -202.394531 292.671875 -203.5625 292.671875 -204.59375 C 292.671875 -205.632812 292.671875 -206.546875 292.671875 -207.328125 C 292.671875 -209.671875 289.941406 -212.789062 284.484375 -216.6875 C 279.035156 -220.582031 271.828125 -224.347656 262.859375 -227.984375 C 253.898438 -231.617188 243.640625 -234.800781 232.078125 -237.53125 C 220.515625 -240.257812 208.628906 -241.625 196.421875 -241.625 C 180.046875 -241.625 164.78125 -239.675781 150.625 -235.78125 C 136.46875 -231.882812 124.0625 -225.84375 113.40625 -217.65625 C 102.757812 -209.46875 94.378906 -199.140625 88.265625 -186.671875 C 82.160156 -174.203125 79.109375 -159.265625 79.109375 -141.859375 C 79.109375 -124.710938 82.160156 -109.898438 88.265625 -97.421875 C 94.378906 -84.953125 102.828125 -74.625 113.609375 -66.4375 C 124.390625 -58.257812 137.25 -52.15625 152.1875 -48.125 C 167.125 -44.101562 183.554688 -42.09375 201.484375 -42.09375 C 214.734375 -42.09375 227.398438 -43.710938 239.484375 -46.953125 C 251.566406 -50.203125 262.21875 -54.296875 271.4375 -59.234375 C 280.664062 -64.171875 288.070312 -69.367188 293.65625 -74.828125 C 299.238281 -80.285156 302.03125 -85.351562 302.03125 -90.03125 C 302.03125 -91.320312 301.898438 -92.488281 301.640625 -93.53125 C 301.378906 -94.570312 300.988281 -95.742188 300.46875 -97.046875 L 304.375 -99.765625 L 344.515625 -42.484375 L 341.390625 -40.921875 C 340.609375 -41.703125 339.050781 -42.09375 336.71875 -42.09375 C 334.894531 -42.09375 332.554688 -41.117188 329.703125 -39.171875 C 326.847656 -37.222656 322.820312 -34.425781 317.625 -30.78125 C 300.21875 -18.3125 281.570312 -9.414062 261.6875 -4.09375 C 241.8125 1.226562 220.1875 3.890625 196.8125 3.890625 C 174.726562 3.890625 153.289062 1.097656 132.5 -4.484375 C 111.71875 -10.066406 93.269531 -18.832031 77.15625 -30.78125 C 61.050781 -42.738281 48.125 -57.8125 38.375 -76 C 28.632812 -94.1875 23.765625 -116.007812 23.765625 -141.46875 C 23.765625 -164.851562 28.503906 -185.570312 37.984375 -203.625 C 47.472656 -221.6875 60.335938 -236.953125 76.578125 -249.421875 C 92.816406 -261.890625 111.523438 -271.367188 132.703125 -277.859375 C 153.878906 -284.359375 176.15625 -287.609375 199.53125 -287.609375 Z M 199.53125 -287.609375 "/></g></g></g><g fill="#ffffff" fill-opacity="1"><g transform="translate(2834.625833, 1697.92655)"><g><path d="M 93.53125 -237.734375 L 93.53125 -232.265625 C 89.894531 -232.265625 87.554688 -231.613281 86.515625 -230.3125 C 85.472656 -229.019531 84.953125 -226.554688 84.953125 -222.921875 L 84.953125 -38.1875 L 235.390625 -38.1875 C 242.660156 -38.1875 246.296875 -40.914062 246.296875 -46.375 L 251.765625 -46.375 L 251.765625 5.453125 L 246.296875 5.453125 C 246.296875 1.816406 242.660156 0 235.390625 0 L 28.84375 0 L 28.84375 -5.453125 C 32.476562 -5.453125 34.8125 -6.164062 35.84375 -7.59375 C 36.882812 -9.03125 37.40625 -11.566406 37.40625 -15.203125 L 37.40625 -222.921875 C 37.40625 -226.296875 36.882812 -228.695312 35.84375 -230.125 C 34.8125 -231.550781 32.476562 -232.265625 28.84375 -232.265625 L 28.84375 -237.734375 Z M 93.53125 -237.734375 "/></g></g></g><g fill="#ffffff" fill-opacity="1"><g transform="translate(3094.568005, 1697.92655)"><g><path d="M 96.265625 -237.734375 L 96.265625 -232.265625 C 93.140625 -232.265625 91.1875 -231.351562 90.40625 -229.53125 C 89.632812 -227.71875 89.25 -225.382812 89.25 -222.53125 L 89.25 -80.671875 C 89.25 -72.878906 90.484375 -66.125 92.953125 -60.40625 C 95.421875 -54.6875 99.445312 -49.878906 105.03125 -45.984375 C 110.613281 -42.085938 118.082031 -39.164062 127.4375 -37.21875 C 136.789062 -35.269531 148.484375 -34.296875 162.515625 -34.296875 C 189.796875 -34.296875 208.828125 -38.0625 219.609375 -45.59375 C 230.390625 -53.132812 235.78125 -64.695312 235.78125 -80.28125 L 235.78125 -222.53125 C 235.78125 -226.164062 235.257812 -228.695312 234.21875 -230.125 C 233.175781 -231.550781 231.097656 -232.265625 227.984375 -232.265625 L 227.984375 -237.734375 L 291.515625 -237.734375 L 291.515625 -232.265625 C 288.390625 -232.265625 286.242188 -231.550781 285.078125 -230.125 C 283.910156 -228.695312 283.328125 -226.164062 283.328125 -222.53125 L 283.328125 -81.84375 C 283.328125 -52.476562 273.773438 -30.847656 254.671875 -16.953125 C 235.578125 -3.054688 204.859375 3.890625 162.515625 3.890625 C 141.210938 3.890625 122.957031 2.140625 107.75 -1.359375 C 92.550781 -4.867188 80.082031 -10.128906 70.34375 -17.140625 C 60.601562 -24.160156 53.394531 -33.0625 48.71875 -43.84375 C 44.039062 -54.625 41.703125 -67.289062 41.703125 -81.84375 L 41.703125 -222.921875 C 41.703125 -226.296875 41.179688 -228.695312 40.140625 -230.125 C 39.097656 -231.550781 36.628906 -232.265625 32.734375 -232.265625 L 32.734375 -237.734375 Z M 96.265625 -237.734375 "/></g></g></g><g fill="#ffffff" fill-opacity="1"><g transform="translate(3419.203405, 1697.92655)"><g><path d="M 185.109375 -38.1875 C 216.546875 -38.1875 232.265625 -49.359375 232.265625 -71.703125 C 232.265625 -83.398438 228.238281 -91.910156 220.1875 -97.234375 C 212.132812 -102.554688 200.703125 -105.21875 185.890625 -105.21875 L 87.296875 -105.21875 L 87.296875 -38.1875 Z M 189.40625 -143.421875 C 200.832031 -143.421875 209.597656 -145.628906 215.703125 -150.046875 C 221.816406 -154.460938 224.875 -161.601562 224.875 -171.46875 C 224.875 -190.175781 213.179688 -199.53125 189.796875 -199.53125 L 87.296875 -199.53125 L 87.296875 -143.421875 Z M 191.359375 -237.734375 C 203.566406 -237.734375 214.539062 -236.171875 224.28125 -233.046875 C 234.019531 -229.929688 242.265625 -225.582031 249.015625 -220 C 255.773438 -214.414062 260.972656 -207.660156 264.609375 -199.734375 C 268.253906 -191.804688 270.078125 -183.164062 270.078125 -173.8125 C 270.078125 -163.9375 267.28125 -154.582031 261.6875 -145.75 C 256.101562 -136.914062 248.894531 -130.289062 240.0625 -125.875 C 245.519531 -123.019531 250.585938 -119.96875 255.265625 -116.71875 C 259.941406 -113.46875 263.90625 -109.566406 267.15625 -105.015625 C 270.40625 -100.472656 272.9375 -95.082031 274.75 -88.84375 C 276.570312 -82.613281 277.484375 -75.082031 277.484375 -66.25 C 277.484375 -55.082031 275.40625 -45.335938 271.25 -37.015625 C 267.09375 -28.703125 261.375 -21.816406 254.09375 -16.359375 C 246.820312 -10.910156 238.3125 -6.820312 228.5625 -4.09375 C 218.820312 -1.363281 208.367188 0 197.203125 0 L 31.171875 0 L 31.171875 -5.453125 C 34.554688 -5.453125 36.832031 -6.035156 38 -7.203125 C 39.164062 -8.378906 39.75 -10.65625 39.75 -14.03125 L 39.75 -223.3125 C 39.75 -226.945312 39.164062 -229.347656 38 -230.515625 C 36.832031 -231.679688 34.554688 -232.265625 31.171875 -232.265625 L 31.171875 -237.734375 Z M 191.359375 -237.734375 "/></g></g></g></svg>